# xmcd
#
# Track frame offsets:
#	150
#	13720
#	27794
#	41075
#	51057
#	64885
#	76438
#	88742
#	102421
#	112603
#	124335
#	136523
#	148898
#	159760
#	172977
#	186690
#	199435
#	210823
#	224536
#	235402
#
# Disc length: 3319 seconds
#
# Revision: 0
# Processed by: cddbd v1.5.2PL0 Copyright (c) Steve Scherf et al.
# Submitted via: audiograbber 1.83.01
#
DISCID=1b0cf514
DTITLE=Various Artist - Country and Western - 200 No.1 - Hits (1944-1962) - CD7
DYEAR=2017
DGENRE=Country
TTITLE0=Pee Wee King - Slow Poke (1951)
TTITLE1=Lefty Frizzell - Always Late (With Your Kisses) (1951)
TTITLE2=Hank Williams - Hey Good Lookin' (1951)
TTITLE3=Eddy Arnold - I Wanna Play House With You (1951)
TTITLE4=Lefty Frizzell - I Want To Be With You Always (1951)
TTITLE5=Eddy Arnold - Kentucky Waltz (1951)
TTITLE6=Hank Williams - Cold, Cold Heart (1951)
TTITLE7=Hank Snow - The Rhumba Boogie (1951)
TTITLE8=Eddy Arnold - There's Been A Change In Me (1951)
TTITLE9=Tennessee Ernie Ford - The Shot Gun Boogie (1951)
TTITLE10=Hank Snow - The Golden Rocket (1951)
TTITLE11=Lefty Frizzell - I Love You A Thousand Ways (1951)
TTITLE12=Hank Williams - Moanin' The Blues (1950)
TTITLE13=Lefty Frizzell - If You've Got The Money I've Got The Time (1950)
TTITLE14=Red Foley and Ernest Tubb - Goodnight Irene (1950)
TTITLE15=Hank Snow - I'm Moving On (1950)
TTITLE16=Red Foley - Mississippi (1950)
TTITLE17=Moon Mullican - I'll Sail My Ship Alone (1950)
TTITLE18=Hank Williams - Why Don't You Love Me (1950)
TTITLE19=Red Foley - Birmingham Bounce (1950)
EXTD=
EXTT0=
EXTT1=
EXTT2=
EXTT3=
EXTT4=
EXTT5=
EXTT6=
EXTT7=
EXTT8=
EXTT9=
EXTT10=
EXTT11=
EXTT12=
EXTT13=
EXTT14=
EXTT15=
EXTT16=
EXTT17=
EXTT18=
EXTT19=
PLAYORDER=
